<?xml version="1.0" encoding="iso-8859-1"?>
<!-- Generator: Adobe Illustrator 19.0.0, SVG Export Plug-In . SVG Version: 6.00 Build 0)  -->
<svg version="1.1" id="Layer_1" xmlns="http://www.w3.org/2000/svg" xmlns:xlink="http://www.w3.org/1999/xlink" x="0px" y="0px"
	 viewBox="0 0 512 512" style="enable-background:new 0 0 512 512;" xml:space="preserve">
<rect id="SVGCleanerId_0" x="157.325" y="148.305" transform="matrix(-0.7071 -0.7071 0.7071 -0.7071 305.4819 543.0052)" style="fill:#E8E8E8;" width="215.752" height="119.86"/>
<path style="fill:#84B3D2;" d="M299.655,360.61L299.655,360.61c9.464,9.464,24.806,9.464,34.27,0l83.65-83.65
	c9.464-9.464,9.464-24.807,0-34.27l0,0c-9.464-9.464-24.807-9.464-34.27,0l-83.65,83.65
	C290.192,335.802,290.192,351.146,299.655,360.61z"/>
<path style="fill:#F07057;" d="M295.431,438.833L295.431,438.833c0,13.383,10.849,24.233,24.233,24.233h157.904
	c13.383,0,24.233-10.85,24.233-24.233l0,0c0-13.383-10.85-24.233-24.233-24.233H319.663
	C306.28,414.601,295.431,425.45,295.431,438.833z"/>
<path style="fill:#84B3D2;" d="M112.826,173.781L112.826,173.781c9.464,9.464,24.807,9.464,34.27,0l83.65-83.65
	c9.464-9.464,9.464-24.807,0-34.27l0,0c-9.464-9.464-24.807-9.464-34.27,0l-83.65,83.65
	C103.363,148.973,103.363,164.317,112.826,173.781z"/>
<g>
	
		<rect id="SVGCleanerId_0_1_" x="157.325" y="148.305" transform="matrix(-0.7071 -0.7071 0.7071 -0.7071 305.4819 543.0052)" style="fill:#E8E8E8;" width="215.752" height="119.86"/>
</g>
<rect x="100.342" y="210.232" transform="matrix(-0.7071 -0.7071 0.7071 -0.7071 -32.1301 682.8371)" style="fill:#E8E8E8;" width="50.027" height="275.682"/>
<path d="M292.444,367.82c6.503,6.503,15.15,10.085,24.348,10.085c9.198,0,17.844-3.582,24.347-10.085l83.649-83.65
	c6.504-6.503,10.086-15.15,10.086-24.348c0-9.198-3.582-17.845-10.085-24.348c-10.711-10.709-26.775-12.866-39.652-6.488
	L244.446,88.301c6.378-12.878,4.222-28.942-6.488-39.651c-6.503-6.503-15.15-10.085-24.348-10.085s-17.844,3.581-24.348,10.085
	l-83.65,83.65c-13.424,13.425-13.424,35.269,0,48.694h0.001c6.713,6.712,15.53,10.069,24.348,10.069
	c5.251,0,10.498-1.2,15.305-3.581l45.445,45.445L2.987,420.648c-3.983,3.983-3.983,10.441,0,14.424l35.376,35.376
	c1.913,1.912,4.507,2.987,7.212,2.987c2.705,0,5.298-1.075,7.212-2.987l187.724-187.723l45.432,45.432
	c-2.34,4.702-3.586,9.913-3.586,15.317C282.358,352.672,285.941,361.318,292.444,367.82z M160.969,174.333l70.331-70.331
	l138.134,138.135l-70.331,70.331L160.969,174.333z M410.364,249.902c2.651,2.651,4.109,6.175,4.109,9.923
	c0,3.748-1.46,7.272-4.11,9.923l-83.65,83.65c-2.651,2.651-6.175,4.11-9.923,4.11c-3.749,0-7.273-1.46-9.923-4.11c0,0,0,0-0.001,0
	c-2.651-2.651-4.11-6.175-4.11-9.923s1.461-7.273,4.111-9.923l83.655-83.654c2.65-2.648,6.172-4.105,9.917-4.105
	C404.188,245.791,407.712,247.251,410.364,249.902z M120.038,166.569c-5.472-5.472-5.472-14.376,0-19.847l83.65-83.65
	c2.651-2.651,6.176-4.11,9.923-4.11c3.749,0,7.273,1.46,9.923,4.11c5.471,5.472,5.471,14.375,0,19.847l-83.655,83.654
	C134.41,172.039,125.509,172.039,120.038,166.569z M45.575,448.812L24.623,427.86l180.513-180.512l20.952,20.952L45.575,448.812z"/>
<path d="M477.567,404.402H319.663c-18.986,0-34.433,15.447-34.433,34.431l0,0c0,18.986,15.447,34.431,34.433,34.431h157.904
	c18.986,0,34.433-15.447,34.433-34.433C512,419.848,496.554,404.402,477.567,404.402z M477.567,452.867H319.663
	c-7.738,0-14.034-6.296-14.034-14.034c0-7.738,6.296-14.033,14.034-14.033h157.904c7.738,0,14.034,6.296,14.034,14.034
	C491.601,446.573,485.305,452.867,477.567,452.867z"/>
<path d="M296.389,181.215l-4.169-4.168c-3.982-3.983-10.441-3.983-14.424,0c-3.983,3.984-3.983,10.441,0.001,14.424l4.169,4.168
	c1.991,1.992,4.601,2.987,7.211,2.987c2.61,0,5.221-0.996,7.212-2.987C300.372,191.656,300.372,185.198,296.389,181.215z"/>
<path d="M238.516,123.343c-3.998-3.97-10.455-3.945-14.424,0.052c-3.969,3.997-3.945,10.455,0.053,14.424l30.789,30.566
	c1.989,1.976,4.588,2.961,7.185,2.961c2.622,0,5.244-1.006,7.238-3.014c3.968-3.997,3.945-10.455-0.053-14.424L238.516,123.343z"/>
<g>
</g>
<g>
</g>
<g>
</g>
<g>
</g>
<g>
</g>
<g>
</g>
<g>
</g>
<g>
</g>
<g>
</g>
<g>
</g>
<g>
</g>
<g>
</g>
<g>
</g>
<g>
</g>
<g>
</g>
</svg>
